<svg id="Layer_1" data-name="Layer 1" xmlns="http://www.w3.org/2000/svg" viewBox="0 0 240 115"><defs><style>.cls-1{fill:#fff;}</style></defs><title>Bumi_Logo</title><path class="cls-1" d="M209.5,88.39c-0.24-2,.21-4-0.19-5.95a7.89,7.89,0,0,1,0-2.38,13,13,0,0,0,0-2.59,12.43,12.43,0,0,1-.09-3.46c0.42-2.12-.32-4.26.23-6.36a2.3,2.3,0,0,0,0-.43c0-1-.24-2-0.24-3a29.62,29.62,0,0,0-.49-6.8,3.16,3.16,0,0,1-.08-0.86,7.43,7.43,0,0,0-.56-3.29,3.4,3.4,0,0,1-.22-1.9,2.82,2.82,0,0,0-.06-1.82,7.78,7.78,0,0,1-.72-2.7,5.09,5.09,0,0,0-1.37-3.22,1.59,1.59,0,0,1-.34-0.9,1.93,1.93,0,0,0-.92-1.29c-1-.55-1.82-1.42-2.78-2a22.65,22.65,0,0,1-2.9-2.08,2.16,2.16,0,0,0-.87-0.42c-1.44-.43-3-0.48-4.35-1.16a3.65,3.65,0,0,0-1-.18,6.13,6.13,0,0,1-1.9-.38,20.41,20.41,0,0,0-2.22-.86,2,2,0,0,0-1.37-.22,12.09,12.09,0,0,1-3.86.39,2.56,2.56,0,0,0-1,.15,8.43,8.43,0,0,1-3,.53,2.25,2.25,0,0,0-1.5.52,1.84,1.84,0,0,1-1,.45,15.54,15.54,0,0,0-3.65.84c-1.34.43-2.58,1.09-3.88,1.62a0.82,0.82,0,0,1-1,0c-1.28-1.22-3.13-1.45-4.44-2.61a2.11,2.11,0,0,0-1.75-.38,2.29,2.29,0,0,1-1.44-.26,2.8,2.8,0,0,0-2.1-.28,1.85,1.85,0,0,1-1,0,7,7,0,0,0-3.73.23c-1,.35-2.1.46-3.19,0.86-0.08-.9-0.16-1.72-0.21-2.54a1.56,1.56,0,0,0-1.67-1.71c-0.32,0-.65,0-1,0-1.6,0-3.16.5-4.81,0.2-1.87-.34-3.77.55-5.69,0.12a2.27,2.27,0,0,0-.94.22,5.94,5.94,0,0,1-3.2.26,3,3,0,0,0-1.91.14,3.39,3.39,0,0,1-1.38.18,1.58,1.58,0,0,0-2,1.39,7.43,7.43,0,0,0-.15,3.64,1.34,1.34,0,0,1,0,1.06,3.09,3.09,0,0,0-.16,2.62,2.17,2.17,0,0,1,0,1.26,8.35,8.35,0,0,0-.25,3.1c0.06,1.62.25,3.24,0.25,4.87,0,1.12.06,2.23,0.05,3.35,0,1.89.3,3.75,0.39,5.63a3,3,0,0,1-.29,2,1.29,1.29,0,0,0-.11.74,44.66,44.66,0,0,1-.26,5.86,37.14,37.14,0,0,0,.31,9.62,14,14,0,0,1,.15,2.81c0,1.16-.31,2.29-0.41,3.43a24.08,24.08,0,0,0,.08,5.53,5.86,5.86,0,0,1,0,1.51,21.7,21.7,0,0,0-.18,3.24c0.07,1.77.31,3.53,0.31,5.31,0,0.9-.17,1.82-0.14,2.69a38.22,38.22,0,0,1-.25,4.53,3.39,3.39,0,0,0,2.49,3.49,17.7,17.7,0,0,0,4.62.36c1.83,0.06,3.67,0,5.5.09,0.51,0,1,0,1.5,0a11.1,11.1,0,0,1,3.77,0,2.4,2.4,0,0,0,3.17-2.45,20.24,20.24,0,0,1,.16-4.87,3.46,3.46,0,0,0-.09-1,13.29,13.29,0,0,1-.11-4,10.48,10.48,0,0,0,.28-3.87,6.46,6.46,0,0,1,.06-1.41,12.91,12.91,0,0,0,.12-3.87,15.87,15.87,0,0,1-.19-4.87,17,17,0,0,0,0-4.11,1.81,1.81,0,0,1,.12-1,7,7,0,0,0,.24-3,11.29,11.29,0,0,1,0-3.44,4.76,4.76,0,0,0,.08-2.23,4,4,0,0,1,0-1.83,10.37,10.37,0,0,0,.3-3.33A2.66,2.66,0,0,1,149.9,64a3.75,3.75,0,0,1,2.5-1.1,1,1,0,0,1,1.32.78c0.21,0.5.41,1,.65,1.49a3.59,3.59,0,0,1,.39,1.88,7.52,7.52,0,0,0,.29,3,1.9,1.9,0,0,1,.06,1.08,10.57,10.57,0,0,0-.08,2.92,36.5,36.5,0,0,1,0,5.86,8.83,8.83,0,0,0,0,3,2.4,2.4,0,0,1,0,1,14.75,14.75,0,0,0-.27,3c0,1,0,2,0,2.92,0.08,1.74-.25,3.47,0,5.21a2.24,2.24,0,0,1-.13,1.07,1.92,1.92,0,0,0-.14,1,15.25,15.25,0,0,1,0,2.91c-0.09,2.2-.12,4.4-0.11,6.6,0,1.37-.14,2.75-0.1,4.12a3,3,0,0,0,2.91,2.89,3.22,3.22,0,0,1,.65,0,29,29,0,0,0,5.5.42,4.21,4.21,0,0,0,2.12-.31,0.93,0.93,0,0,1,.72,0c2.29,0.66,4.64.39,7,.41a1.53,1.53,0,0,0,.63-0.16,3,3,0,0,1,1.46-.25,2,2,0,0,0,2.25-1.13,6.54,6.54,0,0,0,.68-2.38c0-1.3.08-2.6,0.14-3.91a27.78,27.78,0,0,1,.41-4.2,4.37,4.37,0,0,0-.07-1.51,28.31,28.31,0,0,1-.2-6.81c0.09-1,.46-2,0.11-3a6.74,6.74,0,0,1-.15-3,32.54,32.54,0,0,0,.21-5,5.71,5.71,0,0,1,.31-2.66,2.51,2.51,0,0,0,.14-1.76,7.09,7.09,0,0,1-.17-3.21,7.67,7.67,0,0,0,0-2.92,5.88,5.88,0,0,1-.07-1.94c0.11-.93.27-1.86,0.41-2.79a2.91,2.91,0,0,1,2.58-2.35,3.07,3.07,0,0,1,1.42.37A1.4,1.4,0,0,1,184.43,67a3.22,3.22,0,0,0,.31,1.36,2.74,2.74,0,0,1,.27,1.25c0.07,1.52.07,3,.11,4.55s0.15,3.24,0,4.86a11.65,11.65,0,0,0,0,3.35,2.26,2.26,0,0,1-.19,1.27,4,4,0,0,0-.12,2.24,6.54,6.54,0,0,1,.27,3.09,9.63,9.63,0,0,0-.24,3,6,6,0,0,1-.31,2.57,1.24,1.24,0,0,0,.09,1.15,2.52,2.52,0,0,1,.21,1.9,11.44,11.44,0,0,0,0,4.19,3.82,3.82,0,0,1-.15,1.82,2.16,2.16,0,0,0-.07,1.49,4.07,4.07,0,0,1,.1,1,22.83,22.83,0,0,1,0,6.05,5.94,5.94,0,0,0,0,1.41,2.42,2.42,0,0,0,.42,1.22,1,1,0,0,0,.86.57c1.05-.07,2.08.24,3.13,0.18a7.37,7.37,0,0,1,2.9.21,2,2,0,0,0,1.08,0c1.56-.32,3.17,0,4.73-0.28a1.49,1.49,0,0,1,.54,0,12.16,12.16,0,0,0,3.1.08c1.73-.11,3.45-0.12,5.18-0.38s2.19-.76,2.22-2.42a7.42,7.42,0,0,1,.11-1.94,10.08,10.08,0,0,0,.13-4.62,4.77,4.77,0,0,1-.08-1.73,26.89,26.89,0,0,0,.19-4.66,14.21,14.21,0,0,1,.11-1.73,14.08,14.08,0,0,0,.12-2.59,13.93,13.93,0,0,1,.17-4.09,3.29,3.29,0,0,0,0-1.4C209.49,89.46,209.57,88.92,209.5,88.39Z" transform="translate(-2 -2.5)"/><path class="cls-1" d="M121.74,59.29a9.91,9.91,0,0,0-.11-1.62,10.76,10.76,0,0,1-.12-2.38,24.31,24.31,0,0,0-.19-5.62,8,8,0,0,1-.19-1.72c0-1.8.31-3.61-.23-5.39a0.8,0.8,0,0,1,0-.32,40.12,40.12,0,0,0,.24-4.08A2.06,2.06,0,0,0,119.56,36a10.84,10.84,0,0,0-4.48-.12,8.74,8.74,0,0,1-2.36.06,1.73,1.73,0,0,0-1.16.09,1.45,1.45,0,0,1-1.25.09,1.42,1.42,0,0,0-.74,0,6.5,6.5,0,0,1-2.68,0,4.08,4.08,0,0,0-2.55.08,1.71,1.71,0,0,1-1.16.16,2.88,2.88,0,0,0-1.8.17,27.19,27.19,0,0,1-3.65,1,1.09,1.09,0,0,0-1,.77,4.53,4.53,0,0,0-.35,2.23c0.31,1.43.07,2.88,0.32,4.31s0.2,2.88.33,4.32a8.58,8.58,0,0,1-.21,2.79,3,3,0,0,0,0,1.5,17.43,17.43,0,0,1,.39,3.55,20.57,20.57,0,0,0,.41,3.86A10,10,0,0,1,98,63.53a25.42,25.42,0,0,1,.06,3.67,9.15,9.15,0,0,0,.07,3.13,3.35,3.35,0,0,1,.06,1.51,9.24,9.24,0,0,0-.12,3.45A11.89,11.89,0,0,1,98,79.15a8.21,8.21,0,0,0-.17,2.26,4.81,4.81,0,0,1-.29,2.66,0.94,0.94,0,0,0,0,.53,8.58,8.58,0,0,1-.37,3.21A4.57,4.57,0,0,1,96,90c-0.82.82-2.94,1.08-3.71,0.36a3.6,3.6,0,0,1-1.39-2.93,5.19,5.19,0,0,0-.36-2.23,3.11,3.11,0,0,1-.15-0.74c-0.17-1.47-.32-2.94-0.58-4.4A4.26,4.26,0,0,1,90,77.22a2.15,2.15,0,0,0,0-1.59,2.88,2.88,0,0,1-.17-1.06C90,72.35,89.2,70.21,89.38,68c0-.17-0.09-0.36-0.09-0.53A32.59,32.59,0,0,1,89,63.69a10.24,10.24,0,0,0,0-3.95,6,6,0,0,1,0-2.48,10.93,10.93,0,0,0,.34-2.36c-0.07-1.36-.3-2.7-0.37-4.07-0.08-1.55,0-3.1-.08-4.65s0.07-3.09,0-4.64a1.94,1.94,0,0,0-1.43-2,9.54,9.54,0,0,0-4.6.08,3.62,3.62,0,0,1-1.9,0,6.09,6.09,0,0,0-3.4,0,0.93,0.93,0,0,1-.83-0.12,5.6,5.6,0,0,0-3.88-.31,9.08,9.08,0,0,1-3.75.19,2.6,2.6,0,0,0-2.9,1.85A12.32,12.32,0,0,0,66,45.06a3.64,3.64,0,0,1-.28,2.54,1.86,1.86,0,0,0-.19,1.47,5.16,5.16,0,0,1,0,2.88,3.53,3.53,0,0,0,0,1.3,18.87,18.87,0,0,1,.23,5.61,4.36,4.36,0,0,0,.07.75A30.19,30.19,0,0,1,66,64.16a9.81,9.81,0,0,0,0,3.35,13.84,13.84,0,0,1,0,5,45,45,0,0,0,0,7.59,1.28,1.28,0,0,0,.09.42,6.58,6.58,0,0,1,.3,2.67,27.72,27.72,0,0,0,.31,5.94c0.24,1.17.59,2.31,0.73,3.5a22,22,0,0,0,1,5.75,4.51,4.51,0,0,1,.1,1c0.17,1.07.31,2.15,1.36,2.82a2.13,2.13,0,0,1,.79,1.14,6.71,6.71,0,0,0,1.05,1.88c0.52,0.69,1.09,1.36,1.55,2.09a15.52,15.52,0,0,0,3.73,4.19,7.09,7.09,0,0,1,1.11,1.18,14.23,14.23,0,0,0,4.17,3,0.57,0.57,0,0,0,.2.08c1.34,0.17,2.43,1,3.72,1.37a7.77,7.77,0,0,0,1.78.29c1.84,0,3.68-.16,5.51,0a12.25,12.25,0,0,0,2.7.07c0.94-.11,1.87-0.13,2.81-0.15a3.34,3.34,0,0,0,1.48-.27,23,23,0,0,1,4.17-1.45,7,7,0,0,0,1.19-.51,1.91,1.91,0,0,1,.69-0.29,3.45,3.45,0,0,0,2.25-1.18,3.21,3.21,0,0,1,.81-0.53c1.62-.93,3.33-1.73,4.52-3.26a3.91,3.91,0,0,1,1.47-1.26,0.82,0.82,0,0,0,.44-0.46c0.84-2.07,1.94-4,2.63-6.18a13.73,13.73,0,0,1,1.13-3.26,1.12,1.12,0,0,0,.14-0.41c0.18-1.14.57-2.26,0.67-3.4,0.14-1.53.42-3.05,0.48-4.59,0-.36,0-0.73,0-1.09a51,51,0,0,0,.44-7.43c-0.13-2.27.32-4.54-.1-6.8a1.59,1.59,0,0,1,0-.43,19.74,19.74,0,0,0,.09-3.35c-0.11-1.45.28-2.87,0.22-4.33a15.23,15.23,0,0,1,.12-4.64,2,2,0,0,0,0-1A9.72,9.72,0,0,1,121.74,59.29Z" transform="translate(-2 -2.5)"/><path class="cls-1" d="M241.92,110a5.59,5.59,0,0,1-.11-2,3.09,3.09,0,0,0-.08-1.08,4.74,4.74,0,0,1-.13-2.15,3.16,3.16,0,0,0-.13-1.82,4,4,0,0,1-.22-2.45,16.61,16.61,0,0,0,.12-3.46c-0.08-1.63-.25-3.25-0.22-4.88S240.88,89,241,87.39a5.89,5.89,0,0,0,.06-1.72,11.41,11.41,0,0,1,0-3.45,10.68,10.68,0,0,0,0-2.92,25.2,25.2,0,0,1-.34-4.1c0-1,.4-1.94-0.21-2.86a0.62,0.62,0,0,1,0-.32c0-1.37-.28-2.74.11-4.1a1.39,1.39,0,0,0,0-.65c-0.33-1.53-.28-3.09-0.52-4.63a4,4,0,0,1,.13-1.71,7.86,7.86,0,0,0,.06-5.1,4.16,4.16,0,0,1-.42-2.43,6,6,0,0,0-.12-2.46c-0.25-1.42.09-2.86-.15-4.29a1.11,1.11,0,0,1,.16-0.39,2.82,2.82,0,0,0,.13-1.48,2.77,2.77,0,0,1-.09-1.49A7.64,7.64,0,0,0,240,40.6a2.18,2.18,0,0,0-1.26-2,3.28,3.28,0,0,0-2.22-.17,2.68,2.68,0,0,1-1.5.06,2.35,2.35,0,0,0-1.28-.07,31.32,31.32,0,0,1-6,.3c-1.91-.07-3.82,0-5.72,0-2.15,0-4.3.45-6.47,0.09h-0.11a2.09,2.09,0,0,0-2,1.43,4,4,0,0,0-.1,2.14c0.1,0.53.19,1.06,0.26,1.6a9.51,9.51,0,0,1,0,3c-0.21,1,.24,2.05,0,3.11a10.19,10.19,0,0,0,.15,3,20.2,20.2,0,0,1,.15,4.54c-0.12.9,0.25,1.78,0.18,2.7a25.48,25.48,0,0,0,.27,4.54,27.67,27.67,0,0,1,.25,5.41,3.16,3.16,0,0,0,.25,1.91,2.78,2.78,0,0,1,.28,1.57,9.76,9.76,0,0,0,0,3.13,6.39,6.39,0,0,1,.09,2.69,6.85,6.85,0,0,0,.26,3.84,1.64,1.64,0,0,1,.14,1,17.29,17.29,0,0,0,.29,5.58c0.22,1.65.21,3.32,0.4,5a2.6,2.6,0,0,1-.18,1.28,4,4,0,0,0-.1,2.56,2.4,2.4,0,0,1,0,1.38,1,1,0,0,0,0,.64c0.47,1.45.18,2.95,0.34,4.37a17.73,17.73,0,0,0,0,2.11,26.15,26.15,0,0,0,.58,4.81,3.12,3.12,0,0,0,.23.84,1.2,1.2,0,0,0,1,.83,9.14,9.14,0,0,0,3.33-.13,3.65,3.65,0,0,1,1.92-.22,11.09,11.09,0,0,0,4.7,0,17.63,17.63,0,0,1,5.59-.27,2.78,2.78,0,0,0,.76,0,23.78,23.78,0,0,1,4.11-.12,4.78,4.78,0,0,0,1.6-.22A2.33,2.33,0,0,0,241.92,110Z" transform="translate(-2 -2.5)"/><path class="cls-1" d="M122.6,15a3,3,0,0,0,0-1.07,4.09,4.09,0,0,1-.14-1.7c0.11-1.4-.3-2.53-2.14-2.56a59.28,59.28,0,0,1-6-.32,39.18,39.18,0,0,0-6.25.19,3.24,3.24,0,0,1-1.57-.23,3.55,3.55,0,0,0-2.54-.2,7.11,7.11,0,0,1-3.53,0A8.26,8.26,0,0,0,97.61,9a9.33,9.33,0,0,1-1.29.1c-2.06,0-4.12,0-6.17,0C88.42,9,86.71,8.87,85,9a5.78,5.78,0,0,1-1-.13,6,6,0,0,0-2.47,0,1.5,1.5,0,0,1-1.15,0,1.81,1.81,0,0,0-.86-0.08C78.73,8.86,77.9,8.92,77.07,9a1.77,1.77,0,0,1-1,0C75.07,8.2,74,8.6,73,8.87a2.16,2.16,0,0,1-.95.07C71,8.76,69.85,9,68.8,8.57a0.5,0.5,0,0,0-.32,0,8.6,8.6,0,0,1-1.82.23,2.12,2.12,0,0,0-1.84,2.48,23,23,0,0,1,.11,4.08c-0.05,1-.4,2,0.07,3a1.58,1.58,0,0,1-.06.63,7.66,7.66,0,0,0,.12,2.78,4.8,4.8,0,0,1,.17,2.14c-0.2,1.29-.12,2.6-0.3,3.89A2,2,0,0,0,66.36,30a11.13,11.13,0,0,0,2.9.27,2.4,2.4,0,0,1,1.27.19,1.7,1.7,0,0,0,.73.18c2-.13,3.92-0.63,5.9-0.17a2.26,2.26,0,0,0,.54-0.05,15.1,15.1,0,0,1,4.53.11,5.48,5.48,0,0,0,1.27.08c1.47,0.06,2.92-.47,4.4-0.13a1.09,1.09,0,0,0,.54,0,7.64,7.64,0,0,1,2.79,0c1.66,0.11,3.32.86,5,0a0.41,0.41,0,0,1,.21,0c1.11,0.15,2.24,0,3.35.21a4.67,4.67,0,0,0,1.51,0,13.83,13.83,0,0,1,4,0,1.79,1.79,0,0,0,.64,0c0.71-.12,1.42-0.22,2.14-0.32a3.86,3.86,0,0,1,2.33.24,1.65,1.65,0,0,0,1.06.12,10.7,10.7,0,0,1,3.55,0,2.07,2.07,0,0,0,1.17,0,6.22,6.22,0,0,1,2.56-.34h2.14a1,1,0,0,0,1.07-.76,5.07,5.07,0,0,0,.49-2c-0.15-1.59.35-3.15,0.18-4.74a2.5,2.5,0,0,1,.06-0.86c0.37-1.46-.09-3,0.28-4.43a0.68,0.68,0,0,0-.09-0.42A4.15,4.15,0,0,1,122.6,15Z" transform="translate(-2 -2.5)"/><path class="cls-1" d="M214.21,29.74c1,1.12,1.84,2.43,3.27,3.1A12.92,12.92,0,0,1,219.42,34a4.89,4.89,0,0,0,2.53.85,42.51,42.51,0,0,1,4.42.12,6.06,6.06,0,0,0,1.71-.23c2.27-.9,4.52-1.83,6.77-2.76a1.08,1.08,0,0,0,.53-0.35,4.94,4.94,0,0,1,1.16-1.11,13.74,13.74,0,0,0,1.1-1.19,29.82,29.82,0,0,0,1.64-2.65,11.62,11.62,0,0,0,1.69-5.4,13.39,13.39,0,0,1,.2-2c0.35-1.18-.08-2.29-0.08-3.44a1.77,1.77,0,0,0-.32-0.79,3.52,3.52,0,0,1-.7-2.12,1.5,1.5,0,0,0-.29-0.8c-0.52-.85-1.07-1.68-1.54-2.57A28.8,28.8,0,0,0,236,6.36a1.8,1.8,0,0,0-1.25-.79,2.53,2.53,0,0,1-1.32-.68,4.56,4.56,0,0,0-2.37-1.21c-1.37-.13-2.63-0.73-4-1a6.81,6.81,0,0,0-3.51,0,19.23,19.23,0,0,1-2.14.68c-0.84.18-1.68,0.4-2.52,0.6a4.26,4.26,0,0,0-2.07,1.11c-1,.95-2.18,1.64-2.84,2.9a2.52,2.52,0,0,1-.66.72,2.93,2.93,0,0,0-.83,1.25,4.47,4.47,0,0,1-1.17,2,1.72,1.72,0,0,0-.46,1.08,4.74,4.74,0,0,1-.1.64c-0.49,1.67-1.21,3.31-.75,5.13A3.58,3.58,0,0,1,210,20a4.39,4.39,0,0,0,.35,2.74,4.21,4.21,0,0,1,.41,1.45,13.12,13.12,0,0,0,1.8,3.9,1.15,1.15,0,0,0,.38.38A7,7,0,0,1,214.21,29.74Z" transform="translate(-2 -2.5)"/><path class="cls-1" d="M61.17,81.22a3.31,3.31,0,0,1-.65-2.55,5.74,5.74,0,0,0-.6-2.59,2.76,2.76,0,0,1-.38-1A5.33,5.33,0,0,0,58,72a9,9,0,0,1-1.21-1.53,4.51,4.51,0,0,0-1.1-1.19c-0.47-.39-0.94-0.79-1.39-1.21-1.28-1.18-1.26-1.17-.07-2.38a6,6,0,0,0,1.91-2.84,1.36,1.36,0,0,1,.45-0.6,5.44,5.44,0,0,0,1.72-3.85,4.9,4.9,0,0,1,.35-1.69,16.26,16.26,0,0,0,.85-5c0-1.19-.08-2.39,0-3.57a6.19,6.19,0,0,0-.46-2.84,3.67,3.67,0,0,1-.23-1.81,13.86,13.86,0,0,0,0-3c-0.09-.69-0.55-1.19-0.68-1.8a21.42,21.42,0,0,0-1.57-5.14c-0.56-1.15-.94-2.36-1.62-3.49-0.92-1.56-2-3-3-4.49a4,4,0,0,0-2-1.69,6.74,6.74,0,0,1-2.8-1.78,1.81,1.81,0,0,0-1-.61A13.06,13.06,0,0,1,44,20.81a1.55,1.55,0,0,0-.94-0.2,1.44,1.44,0,0,1-1.35-.48A5,5,0,0,0,38.41,19a1.85,1.85,0,0,1-.93-0.18,6,6,0,0,0-2.07-.59,2.9,2.9,0,0,1-1.05-.2,6.45,6.45,0,0,0-4-.44,3.15,3.15,0,0,1-1.6-.13,10.37,10.37,0,0,0-4.48-.5A4.55,4.55,0,0,1,22,16.58a1.74,1.74,0,0,0-1.86.09,3.66,3.66,0,0,1-3.4.38,4.13,4.13,0,0,0-2.14-.21,12.67,12.67,0,0,1-4.29.3c-1.87-.13-3.73.35-5.61,0.16a1.57,1.57,0,0,0-.43,0A2.28,2.28,0,0,0,2.25,19.6a8.85,8.85,0,0,0,.14,1.94,9.23,9.23,0,0,1-.2,4.71,2.58,2.58,0,0,0-.12,1.5,18.22,18.22,0,0,1,.27,4.75,5.08,5.08,0,0,0,.15,1.18,2.46,2.46,0,0,1,.07,1,20.38,20.38,0,0,0-.07,3.58,4.3,4.3,0,0,1,.08,1A10.62,10.62,0,0,0,2.64,45a1.42,1.42,0,0,1,.06.32c0.17,2.05.34,4.11,0.42,6.16,0.16,4-.07,8,0,11.94a4.91,4.91,0,0,1-.19,1.94,3.91,3.91,0,0,0-.13,2.14,5.94,5.94,0,0,1,0,2.15c-0.23,1.21-.25,2.45-0.55,3.65a2.59,2.59,0,0,0,0,1.19c0.33,1.35.1,2.75,0.41,4.1a1.72,1.72,0,0,1,0,.75,10.14,10.14,0,0,0-.07,3.77A7.53,7.53,0,0,1,2.36,86a6.08,6.08,0,0,0-.14,1.94,22.89,22.89,0,0,1,.14,5.19,6.75,6.75,0,0,0,0,1.08,19.25,19.25,0,0,1,0,2.17,8.13,8.13,0,0,0,.14,2.59,7.93,7.93,0,0,1,.06,3.12,9.66,9.66,0,0,0-.12,3.77,9.42,9.42,0,0,1,0,4.09,5.73,5.73,0,0,0,.29,2.56,1.66,1.66,0,0,0,.89,1.3c0.79,0.28,1.49.71,2.27,1a2.52,2.52,0,0,0,1.28.1,9.43,9.43,0,0,1,2.91,0,10.21,10.21,0,0,0,3.12.15,16.73,16.73,0,0,1,4.85.19,10.83,10.83,0,0,0,3.86-.07,3.34,3.34,0,0,1,.86-0.07,22.14,22.14,0,0,0,5.49-.1,2.61,2.61,0,0,1,1,0,4,4,0,0,0,1.9-.15,2,2,0,0,1,1-.1,3.67,3.67,0,0,0,1.82-.17,4.83,4.83,0,0,1,1.92-.16,7.83,7.83,0,0,0,2.91-.17c1.1-.34,2.19-0.73,3.28-1.1a22.4,22.4,0,0,1,2.69-.82,5.14,5.14,0,0,0,2.69-1.3,2.91,2.91,0,0,1,1.42-.74,7,7,0,0,0,2.7-1.33l2.32-1.78a1.15,1.15,0,0,0,.35-0.4,3.22,3.22,0,0,1,1.37-1.33,1.65,1.65,0,0,0,.8-0.71,28,28,0,0,1,1.82-3.55c0.78-1.49,1.72-2.94,1.65-4.75a3,3,0,0,1,.36-1A8.22,8.22,0,0,0,61,92.07a3.38,3.38,0,0,1,.35-2.31,1.43,1.43,0,0,0,0-.85,7.06,7.06,0,0,1,.15-2.48c0.41-1.6-.09-3.15-0.19-4.72A0.81,0.81,0,0,0,61.17,81.22ZM35.09,86.57v0c-0.25.43-.57,0.82-0.86,1.22l-0.28.37c-0.44.35-1.13,0.48-1.57,0.77s-0.77.58-1.14,0.85a44.74,44.74,0,0,0-4.51.69l0-.1-0.1-.27a16.26,16.26,0,0,0-.17-2.79c0-.42-0.08-0.85-0.13-1.27a7.36,7.36,0,0,0-.17-3.58l-0.2-4.59c0-.58,0-1.18-0.07-1.78l0-.06c0.7,0.12,1.4.23,2.1,0.33,0.4,0.05.8,0.1,1.21,0.14a6.28,6.28,0,0,1,1.3.12,0.54,0.54,0,0,0,.24,0,8.23,8.23,0,0,1,.75.51,1.94,1.94,0,0,0,.7.36,3.73,3.73,0,0,0,.49.07l0.64,0.6q0.66,1.07,1.4,2.08l0,0a12,12,0,0,1,.6,2.92,0.56,0.56,0,0,0,.09.27q0,0.41.09,0.81A7.42,7.42,0,0,0,35.24,86ZM25.57,42.42a20.83,20.83,0,0,0,0-2.19c0-.28.05-0.56,0.07-0.84a22.23,22.23,0,0,1,3.19.38,5.51,5.51,0,0,1,2,.89,10.24,10.24,0,0,0,1.53.65,6.43,6.43,0,0,0,.76,1.2,2.24,2.24,0,0,0,.73.53,1.12,1.12,0,0,1,.42.35c0.07,0.74.3,1.46,0.35,2.21a22,22,0,0,0,.07,2.31q0,0.2-.1.4a2.87,2.87,0,0,1-.26.39c-0.46.57-1,1.1-1.44,1.65a5.93,5.93,0,0,1-2.62,2.14,4.51,4.51,0,0,0-2.5.5,4.75,4.75,0,0,0-1.1-.28l-0.94-.1a9.05,9.05,0,0,0,0-3.6,3.26,3.26,0,0,1,0-1.19,13.6,13.6,0,0,0-.07-4.08,7.18,7.18,0,0,1-.11-1A0.54,0.54,0,0,0,25.57,42.42Z" transform="translate(-2 -2.5)"/></svg>